<?xml version="1.0" encoding="UTF-8" standalone="no"?>
<svg
   xmlns:dc="http://purl.org/dc/elements/1.1/"
   xmlns:cc="http://creativecommons.org/ns#"
   xmlns:rdf="http://www.w3.org/1999/02/22-rdf-syntax-ns#"
   xmlns:svg="http://www.w3.org/2000/svg"
   xmlns="http://www.w3.org/2000/svg"
   xmlns:xlink="http://www.w3.org/1999/xlink"
   xmlns:sodipodi="http://sodipodi.sourceforge.net/DTD/sodipodi-0.dtd"
   xmlns:inkscape="http://www.inkscape.org/namespaces/inkscape"
   version="1.1"
   width="44"
   height="44"
   id="svg2"
   inkscape:version="0.91 r13725"
   sodipodi:docname="background.svg">
  <metadata
     id="metadata53">
    <rdf:RDF>
      <cc:Work
         rdf:about="">
        <dc:format>image/svg+xml</dc:format>
        <dc:type
           rdf:resource="http://purl.org/dc/dcmitype/StillImage" />
        <dc:title></dc:title>
      </cc:Work>
    </rdf:RDF>
  </metadata>
  <sodipodi:namedview
     pagecolor="#ffffff"
     bordercolor="#666666"
     borderopacity="1"
     objecttolerance="10"
     gridtolerance="10"
     guidetolerance="10"
     inkscape:pageopacity="0"
     inkscape:pageshadow="2"
     inkscape:window-width="1920"
     inkscape:window-height="1031"
     id="namedview51"
     showgrid="false"
     inkscape:zoom="9.8333333"
     inkscape:cx="-3.5454886"
     inkscape:cy="25.168668"
     inkscape:window-x="0"
     inkscape:window-y="0"
     inkscape:window-maximized="1"
     inkscape:current-layer="svg2"
     fit-margin-top="0"
     fit-margin-left="0"
     fit-margin-right="0"
     fit-margin-bottom="0" />
  <defs
     id="defs4">
    <linearGradient
       inkscape:collect="always"
       id="linearGradient4249">
      <stop
         style="stop-color:#616161;stop-opacity:1"
         offset="0"
         id="stop4251" />
      <stop
         style="stop-color:#cfd8dc;stop-opacity:1"
         offset="1"
         id="stop4253" />
    </linearGradient>
    <linearGradient
       x1="0"
       y1="0"
       x2="0"
       y2="0"
       gradientUnits="userSpaceOnUse"
       id="color-1"
       gradientTransform="translate(-2,-2)">
      <stop
         offset="0"
         stop-color="#000000"
         stop-opacity="0"
         id="stop7" />
      <stop
         offset="1"
         stop-color="#000000"
         stop-opacity="0"
         id="stop9" />
    </linearGradient>
    <linearGradient
       inkscape:collect="always"
       xlink:href="#linearGradient4249"
       id="linearGradient4255"
       x1="24.033897"
       y1="46.169491"
       x2="24.033897"
       y2="2.0338981"
       gradientUnits="userSpaceOnUse"
       gradientTransform="translate(-2,-2)" />
  </defs>
  <path
     style="font-family:none;opacity:1;mix-blend-mode:normal;fill:url(#linearGradient4255);fill-opacity:1;fill-rule:nonzero;stroke:none;stroke-width:1;stroke-linecap:butt;stroke-linejoin:miter;stroke-miterlimit:10;stroke-dasharray:none;stroke-dashoffset:0"
     inkscape:connector-curvature="0"
     id="base 1 5"
     d="M 0,22 C 0,9.84974 9.84974,0 22,0 34.15026,0 44,9.84974 44,22 44,34.15026 34.15026,44 22,44 9.84974,44 0,34.15026 0,22 Z" />
  <path
     inkscape:connector-curvature="0"
     style="font-family:none;mix-blend-mode:normal;fill:url(#color-1);fill-rule:nonzero;stroke:none;stroke-width:1;stroke-linecap:butt;stroke-linejoin:miter;stroke-miterlimit:10;stroke-dasharray:none;stroke-dashoffset:0"
     id="path32"
     d="" />
  <path
     style="font-family:none;mix-blend-mode:normal;fill:none;fill-rule:nonzero;stroke:none;stroke-width:0;stroke-linecap:butt;stroke-linejoin:miter;stroke-miterlimit:10;stroke-dasharray:none;stroke-dashoffset:0"
     inkscape:connector-curvature="0"
     id="path34"
     d="m 21.94949,20.46951 1.2244,0 0,-1.83659 1.83659,0 0,-1.2244 -1.83659,0 0,-1.83659 -1.2244,0 0,1.83659 -1.83659,0 0,1.2244 1.83659,0 z m -2.44879,5.50978 c -0.67648,0 -1.21827,0.54792 -1.21827,1.2244 0,0.67648 0.5418,1.2244 1.21827,1.2244 0.67648,0 1.2244,-0.54792 1.2244,-1.2244 0,-0.67648 -0.54792,-1.2244 -1.2244,-1.2244 z m 6.12198,0 c -0.67648,0 -1.21827,0.54792 -1.21827,1.2244 0,0.67648 0.5418,1.2244 1.21827,1.2244 0.67648,0 1.2244,-0.54792 1.2244,-1.2244 0,-0.67648 -0.54792,-1.2244 -1.2244,-1.2244 z m -6.01484,-1.98965 c 0,-0.02755 0.0061,-0.05204 0.01837,-0.07346 l 0.55098,-0.99788 4.56087,0 c 0.45915,0 0.86014,-0.25406 1.07135,-0.63056 l 2.36308,-4.29151 -1.07135,-0.58771 -0.0031,0 -0.67648,1.2244 -1.68661,3.06099 -4.29457,0 -0.07959,-0.16529 -1.37438,-2.8957 -0.58159,-1.2244 -0.57853,-1.2244 -1.99883,0 0,1.2244 1.2244,0 2.20391,4.64352 -0.82953,1.49988 c -0.09489,0.17754 -0.14999,0.3765 -0.14999,0.59077 0,0.67648 0.54792,1.2244 1.2244,1.2244 l 7.34637,0 0,-1.2244 -7.08619,0 c -0.08571,0 -0.15305,-0.06734 -0.15305,-0.15305 z" />
  <path
     style="font-family:none;mix-blend-mode:normal;fill:none;fill-rule:nonzero;stroke:none;stroke-width:1;stroke-linecap:butt;stroke-linejoin:miter;stroke-miterlimit:10;stroke-dasharray:none;stroke-dashoffset:0"
     inkscape:connector-curvature="0"
     id="base 1 1 1"
     d="M 0,22 C 0,9.84974 9.84974,0 22,0 34.15026,0 44,9.84974 44,22 44,34.15026 34.15026,44 22,44 9.84974,44 0,34.15026 0,22 Z" />
  <g
     style="font-weight:400;font-size:14px;font-family:Roboto, sans-serif;text-anchor:start;mix-blend-mode:normal;fill:#000000;fill-rule:nonzero;stroke:none;stroke-width:1;stroke-linecap:butt;stroke-linejoin:miter;stroke-miterlimit:10;stroke-dasharray:none;stroke-dashoffset:0"
     id="g39"
     font-size="14"
     font-weight="400"
     transform="translate(-2,-2)" />
  <rect
     style="font-family:none;mix-blend-mode:normal;fill:none;fill-rule:nonzero;stroke:none;stroke-width:1;stroke-linecap:butt;stroke-linejoin:miter;stroke-miterlimit:10;stroke-dasharray:none;stroke-dashoffset:0"
     id="rect41"
     height="22"
     width="44"
     y="0"
     x="0" />
  <path
     style="font-family:none;mix-blend-mode:normal;fill:none;fill-rule:nonzero;stroke:none;stroke-width:1;stroke-linecap:butt;stroke-linejoin:miter;stroke-miterlimit:10;stroke-dasharray:none;stroke-dashoffset:0"
     inkscape:connector-curvature="0"
     id="path43"
     d="M 0,22 0,0 44,0 44,22 Z" />
  <path
     style="font-family:none;mix-blend-mode:normal;fill:none;fill-rule:nonzero;stroke:none;stroke-width:1;stroke-linecap:butt;stroke-linejoin:miter;stroke-miterlimit:10;stroke-dasharray:none;stroke-dashoffset:0"
     inkscape:connector-curvature="0"
     id="path45"
     d="M 0,22 0,0 44,0 44,22 Z" />
  <path
     style="font-family:none;mix-blend-mode:normal;fill:none;fill-rule:nonzero;stroke:none;stroke-width:1;stroke-linecap:butt;stroke-linejoin:miter;stroke-miterlimit:10;stroke-dasharray:none;stroke-dashoffset:0"
     inkscape:connector-curvature="0"
     id="path47"
     d="M 0,22 0,0 44,0 44,22 Z" />
  <path
     style="font-family:none;mix-blend-mode:normal;fill:none;fill-rule:nonzero;stroke:none;stroke-width:1;stroke-linecap:butt;stroke-linejoin:miter;stroke-miterlimit:10;stroke-dasharray:none;stroke-dashoffset:0"
     inkscape:connector-curvature="0"
     id="path49"
     d="M 0,22 0,0 44,0 44,22 Z" />
</svg>
